<?xml version="1.0" encoding="utf-8"?>
<!-- Generator: Adobe Illustrator 22.0.1, SVG Export Plug-In . SVG Version: 6.00 Build 0)  -->
<svg version="1.1" id="Capa_1" xmlns="http://www.w3.org/2000/svg" xmlns:xlink="http://www.w3.org/1999/xlink" x="0px" y="0px"
	 viewBox="0 0 448 512" style="enable-background:new 0 0 448 512;" xml:space="preserve">
<style type="text/css">
	.st0{fill:#CC9900;}
	.st1{fill:#FFFFFF;}
</style>
<g>
	<g>
		<rect x="98" y="62" class="st0" width="252" height="194"/>
		<rect x="179" y="62" class="st1" width="90" height="90"/>
		<g>
			<path d="M162.1,212.1l10.1,3.2c-1.5,5.6-4.1,9.8-7.7,12.5c-3.6,2.7-8.2,4.1-13.7,4.1c-6.8,0-12.5-2.3-16.9-7
				c-4.4-4.7-6.6-11.1-6.6-19.2c0-8.6,2.2-15.2,6.6-20s10.3-7.1,17.5-7.1c6.3,0,11.4,1.9,15.4,5.6c2.3,2.2,4.1,5.4,5.3,9.5
				l-10.3,2.5c-0.6-2.7-1.9-4.8-3.8-6.3s-4.3-2.3-7-2.3c-3.8,0-6.9,1.4-9.3,4.1c-2.4,2.7-3.6,7.2-3.6,13.3c0,6.5,1.2,11.2,3.5,13.9
				c2.3,2.8,5.4,4.1,9.1,4.1c2.8,0,5.1-0.9,7.1-2.6C159.8,218.7,161.3,215.9,162.1,212.1z"/>
			<path d="M181.2,231.1v-51.5h38.2v8.7h-27.8v11.4h25.9v8.7h-25.9v14h28.8v8.7H181.2z"/>
			<path d="M275.7,231.1h-11.3l-4.5-11.7h-20.6l-4.3,11.7h-11l20.1-51.5h11L275.7,231.1z M256.5,210.7l-7.1-19.1l-7,19.1H256.5z"/>
			<path d="M281.2,231.1v-51.5h16.7c6.3,0,10.5,0.3,12.4,0.8c3,0.8,5.4,2.5,7.4,5c2,2.6,3,5.9,3,10c0,3.2-0.6,5.8-1.7,8
				c-1.1,2.2-2.6,3.8-4.4,5.1s-3.6,2-5.4,2.4c-2.5,0.5-6.1,0.7-10.8,0.7h-6.8v19.4H281.2z M291.6,188.3v14.6h5.7
				c4.1,0,6.8-0.3,8.2-0.8c1.4-0.5,2.5-1.4,3.3-2.5c0.8-1.1,1.2-2.5,1.2-4c0-1.9-0.6-3.4-1.7-4.6c-1.1-1.2-2.5-2-4.2-2.3
				c-1.2-0.2-3.7-0.4-7.5-0.4H291.6z"/>
		</g>
	</g>
	<g>
		<path class="st0" d="M350,152c0,0,42.6,10,42.6,29.6c0,20-8.2,150,13.5,150v14.7h-28c0,0-3.4-157.3-28-157.3V152z"/>
		<rect x="406.1" y="288.7" width="17.9" height="96.7"/>
	</g>
	<g>
		<path class="st0" d="M98,152c0,0-42.6,10-42.6,29.6c0,20,8.2,150-13.5,150v14.7h28c0,0,3.4-157.3,28-157.3V152z"/>
		<rect x="24" y="288.7" transform="matrix(-1 -4.497037e-11 4.497037e-11 -1 65.9187 674)" width="17.9" height="96.7"/>
	</g>
	<g>
		<ellipse cx="132.7" cy="337" rx="9" ry="48.3"/>
		<ellipse cx="193.8" cy="337" rx="9" ry="48.3"/>
		<ellipse cx="254.8" cy="337" rx="9" ry="48.3"/>
		<ellipse cx="315.3" cy="337" rx="9" ry="48.3"/>
	</g>
</g>
</svg>
