<?xml version="1.0" encoding="utf-8"?>
<!-- Generator: Adobe Illustrator 22.0.1, SVG Export Plug-In . SVG Version: 6.00 Build 0)  -->
<svg version="1.1" id="Capa_1" xmlns="http://www.w3.org/2000/svg" xmlns:xlink="http://www.w3.org/1999/xlink" x="0px" y="0px"
	 viewBox="0 0 448 512" style="enable-background:new 0 0 448 512;" xml:space="preserve">
<path d="M224,324.2c62.3,0,112.7-50.5,112.7-112.7S286.3,98.8,224,98.8s-112.7,50.5-112.7,112.7S161.7,324.2,224,324.2z
	 M268.6,328.9h-89.3c-84.3,0-152.6,68.3-152.6,152.6c0,16.9,13.7,30.5,30.5,30.5h333.4c16.9,0,30.5-13.6,30.5-30.5
	C421.2,397.2,352.9,328.9,268.6,328.9z"/>
<path d="M425.5,137.9c0,33.5-90.2,60.6-201.5,60.6S22.5,171.4,22.5,137.9c0-24.6,48.8-45.8,118.9-55.3v-0.3c0-46,37-83.3,82.6-83.3
	s82.6,37.3,82.6,83.3v0.3C376.7,92.1,425.5,113.3,425.5,137.9z"/>
</svg>
